<?xml version="1.0" encoding="iso-8859-1"?>
<!-- Generator: Adobe Illustrator 24.1.2, SVG Export Plug-In . SVG Version: 6.00 Build 0)  -->
<svg version="1.1" xmlns="http://www.w3.org/2000/svg" xmlns:xlink="http://www.w3.org/1999/xlink" x="0px" y="0px"
	 viewBox="0 0 50 50" style="enable-background:new 0 0 50 50;" xml:space="preserve">
<g id="Layer_10" style="display:none;">
	<g style="display:inline;opacity:0.05;">
		<g>
			<circle style="fill:#FFFFFF;" cx="25" cy="25" r="21.5"/>
			<path d="M25,4c11.579,0,21,9.421,21,21s-9.421,21-21,21S4,36.579,4,25S13.421,4,25,4 M25,3C12.85,3,3,12.85,3,25s9.85,22,22,22
				s22-9.85,22-22S37.15,3,25,3L25,3z"/>
		</g>
		<g>
			<rect x="5.5" y="5.5" style="fill:#FFFFFF;" width="39" height="39"/>
			<path d="M44,6v38H6V6H44 M45,5H5v40h40V5L45,5z"/>
		</g>
	</g>
</g>
<g id="filled">
</g>
<g id="outlined">
</g>
<g id="rounded">
</g>
<g id="two_x5F_tone">
</g>
<g id="sharp">
</g>
<g id="win10">
</g>
<g id="ios_x5F_out">
</g>
<g id="ios_x5F_filled">
	<path style="fill:none;stroke:#000000;stroke-width:4;stroke-linejoin:round;stroke-miterlimit:10;" d="M24.128,36.098
		c-1.728-2.14-4.628-6.261-4.628-9.812C19.5,23.371,21.967,21,25,21s5.5,2.371,5.5,5.286c0,3.541-2.9,7.667-4.63,9.811l-0.871,1.08
		L24.128,36.098z"/>
	<path style="fill:none;stroke:#000000;stroke-width:4;stroke-miterlimit:10;" d="M36.64,45c-4.837,0-8.851-4.552-10.565-6.495
		L25,37.301l-1.074,1.203C22.211,40.448,18.197,45,13.36,45c-4.031,0-7.31-3.271-7.31-7.29c0-0.943,0.261-1.871,0.506-2.666
		c0.501-1.598,5.856-12.417,13.323-26.917C20.879,6.168,22.793,5,25,5s4.121,1.168,5.119,3.125
		c7.469,14.504,12.824,25.323,13.327,26.925c0.243,0.792,0.504,1.721,0.504,2.661C43.95,41.729,40.671,45,36.64,45z"/>
</g>
<g id="color">
</g>
</svg>