<?xml version="1.0" encoding="UTF-8"?><svg id="Layer_2" xmlns="http://www.w3.org/2000/svg" width="174.5" height="158" viewBox="0 0 174.5 158"><g id="Layer_1-2"><path d="m165.19,60h-.44V25.79c0-14.22-11.57-25.79-25.79-25.79H35.54C21.32,0,9.75,11.57,9.75,25.79v34.21h-.44c-5.13,0-9.31,4.18-9.31,9.31v88.69h18v-22h138.5v22h18v-88.69c0-5.13-4.18-9.31-9.31-9.31ZM27.75,25.79c0-4.29,3.49-7.79,7.79-7.79h103.43c4.29,0,7.79,3.49,7.79,7.79v34.21h-14v-16.81c0-5.07-4.12-9.19-9.19-9.19h-19.62c-5.07,0-9.19,4.12-9.19,9.19v16.81h-15v-16.81c0-5.07-4.12-9.19-9.19-9.19h-19.62c-5.07,0-9.19,4.12-9.19,9.19v16.81h-14V25.79Zm-9.75,52.21h138.5v40H18v-40Z"/></g></svg>