<svg width="174" height="48" viewBox="0 0 174 48" fill="none" xmlns="http://www.w3.org/2000/svg">
<path d="M42.7944 4.23025C35.1965 1.22935 26.6352 5.03695 23.6711 12.7367C20.7726 20.2618 24.2855 41.7712 25.3051 47.5346C25.4227 48.1958 26.1877 48.4979 26.7173 48.0932C26.8131 48.0197 26.9158 47.9393 27.0225 47.8576V17.8361C27.0704 12.1102 31.6932 7.46678 37.3711 7.46678C43.049 7.46678 47.721 12.1587 47.721 17.9249C47.721 23.691 43.0777 28.3829 37.3711 28.3829C34.994 28.3829 32.8017 27.5679 31.0514 26.2012V42.9134C31.0514 42.9134 31.0404 43.6535 31.0336 44.6779C37.8528 39.1487 48.8925 29.5445 51.1792 23.6065C54.1447 15.9067 50.3882 7.23253 42.7931 4.23163L42.7944 4.23025Z" fill="white"/>
<path d="M37.3959 24.3784C40.9013 24.3784 43.743 21.5002 43.743 17.9497C43.743 14.3992 40.9013 11.521 37.3959 11.521C33.8905 11.521 31.0488 14.3992 31.0488 17.9497C31.0488 21.5002 33.8905 24.3784 37.3959 24.3784Z" fill="white"/>
<path d="M8.54502 12.4362C9.46602 11.9192 10.5006 11.66 11.6474 11.66C12.6437 11.66 13.5729 11.8942 14.4323 12.3599C15.2917 12.827 16.0211 13.527 16.6192 14.4612L20.1704 12.3405C19.4232 10.802 18.301 9.62794 16.8066 8.81985C15.3122 8.01175 13.6044 7.6084 11.6857 7.6084C9.59329 7.6084 7.7294 8.05749 6.09815 8.95291C4.46554 9.84971 3.18873 11.0667 2.26636 12.6067C1.344 14.1466 0.882812 15.9374 0.882812 17.9819C0.882812 20.0264 1.344 21.7868 2.26636 23.3392C3.18736 24.8916 4.46554 26.1155 6.09815 27.0109C7.7294 27.9077 9.59329 28.3555 11.6857 28.3555C13.6044 28.3555 15.3109 27.9452 16.8066 27.1246C18.301 26.3054 19.4232 25.1369 20.1704 23.6233L16.6192 21.5026C16.0211 22.4618 15.2917 23.1742 14.4323 23.6413C13.5729 24.1085 12.6437 24.3413 11.6474 24.3413C10.5006 24.3413 9.46602 24.0835 8.54502 23.5651C7.62266 23.0481 6.90009 22.3093 6.37733 21.3501C5.85456 20.391 5.59181 19.2682 5.59181 17.9805C5.59181 16.6929 5.85319 15.5771 6.37733 14.6304C6.90009 13.6837 7.62266 12.9518 8.54502 12.4348V12.4362Z" fill="white"/>
<path d="M69.9729 8.55497C68.7399 7.9243 67.3125 7.60827 65.6936 7.60827C63.9488 7.60827 62.4106 7.96172 61.0777 8.66863C60.2798 9.09139 59.6024 9.62088 59.0414 10.2529V0H54.4062V28.0906H59.0414V17.8695C59.0414 16.507 59.2713 15.3773 59.7324 14.4819C60.1936 13.5865 60.8478 12.9101 61.6949 12.4568C62.542 12.0022 63.5136 11.7749 64.6098 11.7749C66.1288 11.7749 67.3002 12.217 68.1227 13.1C68.9452 13.9843 69.3557 15.3205 69.3557 17.1127V28.092H74.0278V16.507C74.0278 14.4625 73.6596 12.7853 72.9247 11.4727C72.1899 10.1601 71.2059 9.18842 69.9715 8.55774L69.9729 8.55497Z" fill="white"/>
<path d="M91.109 17.6229C90.1866 17.232 88.9906 16.8342 87.5208 16.4308C86.3494 16.1037 85.4338 15.8057 84.7742 15.5409C84.1132 15.2762 83.5658 14.9227 83.1293 14.4806C82.6927 14.0398 82.4751 13.477 82.4751 12.7965C82.4751 11.9385 82.8364 11.244 83.559 10.7146C84.2816 10.1851 85.2532 9.91894 86.4739 9.91894C87.7945 9.91894 88.8469 10.2474 89.6324 10.9031C90.4179 11.5601 90.8476 12.4305 90.9215 13.5159H94.3222C94.2223 11.4977 93.4751 9.90647 92.0792 8.74631C90.6834 7.58614 88.8523 7.00537 86.5847 7.00537C85.115 7.00537 83.8067 7.26457 82.6599 7.78158C81.5131 8.2986 80.629 8.99996 80.0064 9.8829C79.3837 10.7672 79.0717 11.7375 79.0717 12.7979C79.0717 14.1354 79.4138 15.2152 80.0994 16.0344C80.785 16.855 81.6075 17.4732 82.5668 17.889C83.5261 18.3048 84.766 18.7165 86.2864 19.1198C87.956 19.5495 89.189 19.9848 89.9868 20.4255C90.7846 20.8677 91.1829 21.5427 91.1829 22.4506C91.1829 23.3585 90.8093 24.0654 90.0621 24.6462C89.3149 25.227 88.2926 25.5167 86.9967 25.5167C85.6008 25.5167 84.4731 25.1895 83.6137 24.5325C82.7543 23.8769 82.274 23.0314 82.1741 21.996H78.6611C78.7364 23.2587 79.1346 24.3745 79.8572 25.3462C80.5798 26.3178 81.5637 27.0746 82.8104 27.618C84.0557 28.1599 85.4639 28.4316 87.0336 28.4316C88.5034 28.4316 89.8048 28.1724 90.9393 27.6554C92.0724 27.1384 92.951 26.4245 93.575 25.5167C94.1977 24.6088 94.5097 23.5858 94.5097 22.4506C94.4851 21.1893 94.1416 20.1663 93.482 19.3846C92.821 18.6028 92.03 18.0151 91.109 17.6242V17.6229Z" fill="white"/>
<path d="M103.443 2.11914H100.043V7.34333H97.3892V10.182H100.043V22.4102C100.043 24.4297 100.516 25.881 101.463 26.7639C102.41 27.6482 103.831 28.089 105.725 28.089H108.79V25.174H106.286C105.239 25.174 104.504 24.9661 104.081 24.5489C103.657 24.1331 103.446 23.4192 103.446 22.4102V10.182H108.791V7.34333H103.446V2.11914H103.443Z" fill="white"/>
<path d="M128.971 11.1303C128.323 9.94381 127.339 8.95969 126.018 8.17793C124.697 7.39617 123.14 7.00391 121.346 7.00391C119.552 7.00391 117.876 7.44607 116.393 8.32901C114.911 9.21195 113.745 10.4553 112.898 12.0576C112.051 13.6613 111.627 15.5215 111.627 17.6422C111.627 19.7629 112.05 21.605 112.898 23.2448C113.745 24.8859 114.903 26.1597 116.374 27.069C117.844 27.9769 119.489 28.4315 121.308 28.4315C123.126 28.4315 124.628 28.0337 125.961 27.2395C127.294 26.4439 128.297 25.4417 128.97 24.2303V28.0919H132.409V7.34489H128.97V11.1303H128.971ZM128.037 21.7866C127.414 22.9606 126.572 23.856 125.513 24.4742C124.454 25.0924 123.289 25.4015 122.018 25.4015C120.747 25.4015 119.589 25.0924 118.542 24.4742C117.495 23.856 116.66 22.9606 116.038 21.7866C115.415 20.6126 115.103 19.2306 115.103 17.6408C115.103 16.0509 115.414 14.7134 116.038 13.5518C116.66 12.3917 117.495 11.5073 118.542 10.9016C119.589 10.2959 120.748 9.99371 122.018 9.99371C123.288 9.99371 124.454 10.3028 125.513 10.921C126.572 11.5392 127.413 12.4291 128.037 13.5906C128.659 14.7522 128.971 16.1147 128.971 17.6796C128.971 19.2445 128.659 20.614 128.037 21.7866Z" fill="white"/>
<path d="M145.941 24.1525L139.512 7.34473H135.737L143.996 27.8631L139.96 37.8568H143.473L155.808 7.34473H152.295L145.941 24.1525Z" fill="white"/>
<path d="M172.907 19.3832C172.246 18.6014 171.455 18.0137 170.534 17.6229C169.611 17.232 168.415 16.8342 166.946 16.4308C165.774 16.1037 164.859 15.8057 164.199 15.5409C163.538 15.2762 162.991 14.9227 162.554 14.4806C162.118 14.0398 161.9 13.477 161.9 12.7965C161.9 11.9385 162.261 11.244 162.984 10.7146C163.706 10.1851 164.678 9.91894 165.899 9.91894C167.219 9.91894 168.272 10.2474 169.057 10.9031C169.843 11.5601 170.272 12.4305 170.346 13.5159H173.747C173.647 11.4977 172.9 9.90647 171.504 8.74631C170.108 7.58614 168.277 7.00537 166.01 7.00537C164.538 7.00537 163.231 7.26457 162.085 7.78158C160.938 8.2986 160.054 8.99996 159.431 9.8829C158.809 10.7672 158.496 11.7375 158.496 12.7979C158.496 14.1354 158.839 15.2152 159.524 16.0344C160.21 16.855 161.032 17.4732 161.992 17.889C162.951 18.3048 164.191 18.7165 165.711 19.1198C167.381 19.5495 168.614 19.9848 169.412 20.4255C170.209 20.8677 170.608 21.5427 170.608 22.4506C170.608 23.3585 170.234 24.0654 169.487 24.6462C168.74 25.227 167.717 25.5167 166.421 25.5167C165.026 25.5167 163.898 25.1895 163.039 24.5325C162.179 23.8769 161.699 23.0314 161.599 21.996H158.086C158.161 23.2587 158.559 24.3745 159.282 25.3462C160.005 26.3178 160.989 27.0746 162.235 27.618C163.481 28.1599 164.889 28.4316 166.458 28.4316C167.928 28.4316 169.23 28.1724 170.364 27.6554C171.497 27.1384 172.376 26.4245 173 25.5167C173.622 24.6088 173.935 23.5858 173.935 22.4506C173.91 21.1893 173.566 20.1663 172.907 19.3846V19.3832Z" fill="white"/>
</svg>
