<?xml version="1.0" encoding="UTF-8"?><svg id="Layer_2" xmlns="http://www.w3.org/2000/svg" width="141.47" height="200.62" viewBox="0 0 141.47 200.62"><defs><style>.cls-1{fill:none;}.cls-2{fill:#020426;stroke:#020426;stroke-miterlimit:10;stroke-width:7px;}</style></defs><g id="Layer_1-2"><path class="cls-1" d="m97.46,71.05c0-14.74-11.99-26.73-26.73-26.73s-26.73,11.99-26.73,26.73,11.99,26.73,26.73,26.73,26.73-11.99,26.73-26.73Z"/><path class="cls-2" d="m70.73,3.5C33.66,3.5,3.5,33.66,3.5,70.73c0,17.03,8.24,40.3,24.5,69.17,12.82,22.78,27.3,43.12,34.79,53.22,1.88,2.54,4.78,4,7.94,4s6.06-1.46,7.94-4c7.49-10.1,21.97-30.44,34.79-53.22,16.25-28.87,24.5-52.15,24.5-69.17,0-37.07-30.16-67.23-67.23-67.23Zm-.57,184.15c-7.36-9.93-21.59-29.91-34.17-52.25-15.25-27.09-23.32-49.46-23.32-64.67,0-32.01,26.04-58.05,58.05-58.05s58.05,26.04,58.05,58.05c0,15.21-8.06,37.57-23.32,64.67-12.58,22.34-26.81,42.33-34.17,52.25-.28.38-.86.38-1.14,0Z"/><path class="cls-2" d="m70.73,35.13c-19.8,0-35.91,16.11-35.91,35.91s16.11,35.91,35.91,35.91,35.91-16.11,35.91-35.91-16.11-35.91-35.91-35.91Zm-26.73,35.91c0-14.74,11.99-26.73,26.73-26.73s26.73,11.99,26.73,26.73-11.99,26.73-26.73,26.73-26.73-11.99-26.73-26.73Z"/></g></svg>