<?xml version="1.0" encoding="iso-8859-1"?>
<!-- Generator: Adobe Illustrator 24.1.2, SVG Export Plug-In . SVG Version: 6.00 Build 0)  -->
<svg version="1.1" xmlns="http://www.w3.org/2000/svg" xmlns:xlink="http://www.w3.org/1999/xlink" x="0px" y="0px"
	 viewBox="0 0 50 50" style="enable-background:new 0 0 50 50;" xml:space="preserve">
<g id="Layer_10" style="display:none;">
	<g style="display:inline;opacity:0.05;">
		<g>
			<circle style="fill:#FFFFFF;" cx="25" cy="25" r="21.5"/>
			<path d="M25,4c11.579,0,21,9.421,21,21s-9.421,21-21,21S4,36.579,4,25S13.421,4,25,4 M25,3C12.85,3,3,12.85,3,25s9.85,22,22,22
				s22-9.85,22-22S37.15,3,25,3L25,3z"/>
		</g>
		<g>
			<rect x="5.5" y="5.5" style="fill:#FFFFFF;" width="39" height="39"/>
			<path d="M44,6v38H6V6H44 M45,5H5v40h40V5L45,5z"/>
		</g>
	</g>
</g>
<g id="filled">
</g>
<g id="outlined">
</g>
<g id="rounded">
</g>
<g id="doodle">
</g>
<g id="colorhanddrawn">
</g>
<g id="handdrawn">
</g>
<g id="ios_x5F_out">
</g>
<g id="ios_x5F_filled">
	<path d="M44,10v7c-1.28-0.43-2-5-4-5c-1,0-1.91,1.35-2,1c0,0,0-3-2-3s-6,6-11,6s-9-6-11-6s-2,3-2,3c-0.09,0.35-1-1-2-1
		c-2,0-2.72,4.57-4,5v-7c0-2.21,1.79-4,4-4h30C42.21,6,44,7.79,44,10z"/>
	<path d="M44,27v13c0,2.21-1.79,4-4,4H10c-2.21,0-4-1.79-4-4V27c0,0,1.85,7,7.52,7c2.69,0,4.86-0.65,6.48-1.54
		c0.03,0.59,0.52,1.16,1.26,1.61C21.09,34.35,21,34.67,21,35c0,1.49,1.79,4.04,4,4.04s4-2.55,4-4.04c0-0.33-0.09-0.65-0.26-0.93
		c0.74-0.45,1.23-1.02,1.26-1.61c1.62,0.89,3.79,1.54,6.48,1.54C42.15,34,44,27,44,27z"/>
	<path style="fill:none;stroke:#000000;stroke-width:2;stroke-linecap:round;stroke-linejoin:round;stroke-miterlimit:10;" d="M6,10
		v30c0,2.209,1.791,4,4,4h30c2.209,0,4-1.791,4-4V10c0-2.209-1.791-4-4-4H10C7.791,6,6,7.791,6,10z"/>
	<path style="fill:none;stroke:#000000;stroke-width:2;stroke-linecap:round;stroke-linejoin:round;stroke-miterlimit:10;" d="
		M28.749,34.065C28.914,34.354,29,34.668,29,34.998c0,1.488-1.79,4.042-4,4.042s-4-2.554-4-4.042c0-0.33,0.086-0.645,0.251-0.933"/>
	<path style="fill:none;stroke:#000000;stroke-width:2;stroke-linecap:round;stroke-linejoin:round;stroke-miterlimit:10;" d="
		M30,32.4c0-1.325-2-3.4-5-3.4s-5,2.075-5,3.4c0,1.325,2.239,2.6,5,2.6S30,33.725,30,32.4z"/>
	<path style="fill:none;stroke:#000000;stroke-width:2;stroke-linecap:round;stroke-linejoin:round;stroke-miterlimit:10;" d="
		M35,29L35,29c-2.761,0-5-2.239-5-5v-2c0-2.761,2.239-5,5-5h0c2.761,0,5,2.239,5,5v2C40,26.761,37.761,29,35,29z"/>
	<path d="M37,22v2c0,1.1-0.9,2-2,2s-2-0.9-2-2v-1.09c0.16,0.06,0.32,0.09,0.5,0.09c0.83,0,1.5-0.67,1.5-1.5
		c0-0.59-0.33-1.09-0.82-1.32C34.43,20.06,34.71,20,35,20c0.55,0,1.05,0.22,1.41,0.59C36.78,20.95,37,21.45,37,22z"/>
	<path style="fill:none;stroke:#000000;stroke-width:2;stroke-linecap:round;stroke-linejoin:round;stroke-miterlimit:10;" d="
		M20.026,32.643C18.548,33.506,16.831,34,15,34c-3.954,0-7.379-2.306-9.001-5.644"/>
	<path style="fill:none;stroke:#000000;stroke-width:2;stroke-linecap:round;stroke-linejoin:round;stroke-miterlimit:10;" d="
		M29.974,32.643C31.452,33.506,33.169,34,35,34c3.954,0,7.379-2.306,9.001-5.644"/>
	<path style="fill:none;stroke:#000000;stroke-width:2;stroke-linecap:round;stroke-linejoin:round;stroke-miterlimit:10;" d="
		M15,29L15,29c-2.761,0-5-2.239-5-5v-2c0-2.761,2.239-5,5-5h0c2.761,0,5,2.239,5,5v2C20,26.761,17.761,29,15,29z"/>
	<path d="M17,22v2c0,1.1-0.9,2-2,2s-2-0.9-2-2v-1.09c0.16,0.06,0.32,0.09,0.5,0.09c0.83,0,1.5-0.67,1.5-1.5
		c0-0.59-0.33-1.09-0.82-1.32C14.43,20.06,14.71,20,15,20c0.55,0,1.05,0.22,1.41,0.59C16.78,20.95,17,21.45,17,22z"/>
</g>
<g id="color">
</g>
<g id="fluent">
</g>
<g id="cute">
</g>
<g id="cute_outline">
</g>
</svg>