<svg width="45" height="45" viewBox="0 0 45 45" fill="none" xmlns="http://www.w3.org/2000/svg">
<circle cx="22.5" cy="22.5" r="21.75" fill="#020426"/>
<path d="M18.8616 25.524C20.0904 24.4616 21.0568 23.5912 21.7608 22.9128C22.4776 22.2216 23.0728 21.5048 23.5464 20.7624C24.02 20.02 24.2568 19.2776 24.2568 18.5352C24.2568 17.7672 24.0712 17.1656 23.7 16.7304C23.3416 16.2952 22.772 16.0776 21.9912 16.0776C21.236 16.0776 20.6472 16.3208 20.2248 16.8072C19.8152 17.2808 19.5976 17.9208 19.572 18.7272H17.46C17.4984 17.268 17.9336 16.1544 18.7656 15.3864C19.6104 14.6056 20.6792 14.2152 21.972 14.2152C23.3672 14.2152 24.4552 14.5992 25.236 15.3672C26.0296 16.1352 26.4264 17.1592 26.4264 18.4392C26.4264 19.3608 26.1896 20.2504 25.716 21.108C25.2552 21.9528 24.6984 22.7144 24.0456 23.3928C23.4056 24.0584 22.5864 24.8328 21.588 25.716L20.724 26.484H26.8104V28.308H17.4792V26.7144L18.8616 25.524Z" fill="#D4FCFF"/>
</svg>
