<svg width="45" height="44" viewBox="0 0 45 44" fill="none" xmlns="http://www.w3.org/2000/svg">
<circle cx="22.5" cy="22" r="21.75" fill="#020426"/>
<path d="M17.6136 18.2092C17.6904 17.0188 18.1448 16.0908 18.9768 15.4252C19.8216 14.7596 20.8968 14.4268 22.2024 14.4268C23.0984 14.4268 23.8728 14.5868 24.5256 14.9068C25.1784 15.2268 25.6712 15.662 26.004 16.2124C26.3368 16.7628 26.5032 17.3836 26.5032 18.0748C26.5032 18.8684 26.292 19.5468 25.8696 20.11C25.4472 20.6732 24.9416 21.0508 24.3528 21.2428V21.3196C25.108 21.55 25.6968 21.9724 26.1192 22.5868C26.5416 23.1884 26.7528 23.9628 26.7528 24.91C26.7528 25.6652 26.58 26.3372 26.2344 26.926C25.8888 27.5148 25.3768 27.982 24.6984 28.3276C24.02 28.6604 23.2072 28.8268 22.26 28.8268C20.8776 28.8268 19.7384 28.4748 18.8424 27.7708C17.9592 27.054 17.4856 26.03 17.4216 24.6988H19.5336C19.5848 25.3772 19.8472 25.934 20.3208 26.3692C20.7944 26.7916 21.4344 27.0028 22.2408 27.0028C23.0216 27.0028 23.6232 26.7916 24.0456 26.3692C24.468 25.934 24.6792 25.3772 24.6792 24.6988C24.6792 23.8028 24.3912 23.1692 23.8152 22.798C23.252 22.414 22.3816 22.222 21.204 22.222H20.7048V20.4172H21.2232C22.26 20.4044 23.0472 20.2316 23.5848 19.8988C24.1352 19.566 24.4104 19.0412 24.4104 18.3244C24.4104 17.71 24.212 17.2236 23.8152 16.8652C23.4184 16.494 22.8552 16.3084 22.1256 16.3084C21.4088 16.3084 20.852 16.494 20.4552 16.8652C20.0584 17.2236 19.8216 17.6716 19.7448 18.2092H17.6136Z" fill="#D4FCFF"/>
</svg>
