<svg width="48" height="48" viewBox="0 0 48 48" fill="none" xmlns="http://www.w3.org/2000/svg">
<path d="M28.2419 20.9597C27.8669 20.5848 27.3583 20.3741 26.8279 20.3741C26.2976 20.3741 25.789 20.5848 25.4139 20.9597L23.9999 22.3737C23.2496 23.1237 22.2321 23.545 21.1712 23.5448C20.1103 23.5446 19.093 23.123 18.3429 22.3727C17.5929 21.6224 17.1717 20.6049 17.1718 19.544C17.172 18.4831 17.5936 17.4657 18.3439 16.7157L29.6039 5.45169C32.2698 4.84535 35.059 5.09489 37.5748 6.16484C40.0907 7.2348 42.2052 9.07069 43.6177 11.4115C45.0302 13.7523 45.6688 16.4788 45.4426 19.2034C45.2164 21.9279 44.1371 24.5118 42.3579 26.5877L38.1419 30.8577L28.2419 20.9597ZM6.32194 8.93969C8.39146 6.87045 11.0984 5.55965 14.0051 5.21923C16.9117 4.8788 19.8483 5.52865 22.3399 7.06369L15.5139 13.8877C14.0252 15.3609 13.1736 17.3592 13.142 19.4534C13.1104 21.5476 13.9013 23.5707 15.3449 25.0882C16.7886 26.6057 18.7697 27.4965 20.8629 27.5693C22.9561 27.6421 24.9944 26.8912 26.5399 25.4777L26.8279 25.2017L35.3139 33.6877L26.8279 42.1717C26.0778 42.9216 25.0606 43.3428 23.9999 43.3428C22.9393 43.3428 21.9221 42.9216 21.1719 42.1717L6.31994 27.3237C5.1126 26.1165 4.15487 24.6833 3.50145 23.106C2.84803 21.5286 2.51172 19.838 2.51172 18.1307C2.51172 16.4234 2.84803 14.7328 3.50145 13.1554C4.15487 11.5781 5.1126 10.1449 6.31994 8.93769L6.32194 8.93969Z" fill="#111111"/>
</svg>
