<?xml version="1.0" encoding="UTF-8"?><svg id="Layer_2" xmlns="http://www.w3.org/2000/svg" width="173.64" height="173.09" viewBox="0 0 173.64 173.09"><defs><style>.cls-1{fill:#020426;}.cls-2{fill:#d4fcff;}</style></defs><g id="Layer_1-2"><path class="cls-2" d="m139.71,148.37c-.18,0-.36,0-.54.01.18,0,.36-.01.54-.01h0Z"/><path class="cls-2" d="m136.11,149.01c.32-.12.65-.22.98-.31-.33.09-.66.19-.98.31Z"/><path class="cls-2" d="m134.28,149.89c.29-.18.59-.34.89-.48-.31.15-.6.31-.89.48Z"/><path class="cls-2" d="m137.6,148.59c.51-.1,1.04-.17,1.57-.2-.53.03-1.06.09-1.57.2Z"/><path class="cls-2" d="m132.3,151.44c.24-.24.49-.46.74-.68-.26.21-.51.44-.74.68Z"/><path class="cls-1" d="m165.45,7.47c-.25-.23-.51-.44-.78-.64-1.21-.91-2.62-1.56-4.15-1.87-.68-.14-1.39-.21-2.11-.21h-90.62c-1.44,0-2.82.29-4.07.82-.31.13-.62.28-.92.44s-.59.34-.86.53c-.56.38-1.08.81-1.55,1.28-.12.12-.23.24-.35.36-.23.25-.44.51-.64.78-.1.13-.2.27-.29.41-.19.28-.36.57-.53.86s-.31.6-.44.92c-.13.31-.25.63-.35.96-.31.98-.47,2.03-.47,3.11v41.54s-42.09,0-42.09,0c-.18,0-.36,0-.54.01-.53.03-1.06.09-1.57.2-.17.03-.34.07-.51.12-.33.09-.66.19-.98.31s-.63.25-.94.4c-.31.15-.6.31-.89.48-.43.26-.84.56-1.23.88-.26.21-.51.44-.74.68-1.9,1.9-3.07,4.52-3.07,7.4v90.62c0,2.89,1.17,5.51,3.07,7.4.24.24.49.46.74.68.39.32.8.61,1.23.88.29.18.59.34.89.48.31.15.62.28.94.4s.65.22.98.31c.17.04.34.08.51.12.51.1,1.04.17,1.57.2.18,0,.36.01.54.01h90.62c5.78,0,10.47-4.7,10.47-10.47v-41.54s42.09,0,42.09,0c5.78,0,10.47-4.7,10.47-10.47V15.23c0-3.07-1.33-5.83-3.44-7.75Zm-52.74,102.26h0s-2.98,0-2.98,0v48.13c0,2.15-1.75,3.89-3.89,3.89H15.23c-2.15,0-3.89-1.75-3.89-3.89v-90.62c0-2.15,1.75-3.89,3.89-3.89h48.68v-6.58h0s0-41.54,0-41.54c0-2.15,1.75-3.89,3.89-3.89h90.62c2.15,0,3.89,1.75,3.89,3.89v90.62c0,2.15-1.75,3.89-3.89,3.89h-45.7Z"/><path class="cls-1" d="m105.85,173.09H15.23c-.26,0-.52,0-.77-.02-.78-.04-1.55-.14-2.3-.29-.24-.05-.5-.11-.75-.17-.45-.12-.93-.27-1.4-.44-.48-.18-.94-.37-1.38-.58-.44-.21-.88-.45-1.29-.7-.63-.39-1.23-.81-1.79-1.27-.38-.31-.74-.64-1.08-.99-2.87-2.87-4.46-6.7-4.46-10.76v-90.62c0-4.06,1.58-7.88,4.46-10.76.34-.34.7-.67,1.08-.98.56-.47,1.17-.89,1.79-1.27.42-.25.85-.49,1.3-.71.44-.21.9-.41,1.36-.58.47-.17.95-.32,1.43-.45.25-.06.5-.12.75-.17.74-.15,1.51-.25,2.27-.29.26-.01.52-.02.78-.02h37.34V15.23c0-1.54.23-3.06.69-4.53.15-.47.32-.94.51-1.4.19-.46.41-.9.65-1.34.23-.43.49-.85.76-1.25.14-.21.28-.4.43-.6.29-.39.6-.76.93-1.12.16-.18.33-.35.5-.52.7-.7,1.45-1.32,2.26-1.86.4-.27.82-.53,1.25-.76.43-.24.88-.45,1.33-.64,1.88-.8,3.88-1.2,5.93-1.2h90.62c1.03,0,2.06.1,3.06.31,2.17.45,4.26,1.39,6.05,2.72.39.29.77.6,1.12.93h0c3.17,2.88,4.99,6.99,4.99,11.27v90.62c0,8.4-6.83,15.22-15.23,15.22h-37.34v36.79c0,8.4-6.83,15.23-15.23,15.23Zm-89.76-16.08h88.9v-52.02h52.57s0-88.91,0-88.91h-88.9v52.02s-52.57,0-52.57,0v88.9Z"/><path class="cls-1" d="m33.86,112c0-2.41-.08-4.47-.16-6.17h5.06l.28,2.61h.12c.83-1.23,2.53-3.04,5.85-3.04,2.49,0,4.47,1.26,5.3,3.28h.08c.71-.99,1.58-1.78,2.49-2.33,1.07-.63,2.25-.95,3.68-.95,3.71,0,6.52,2.61,6.52,8.38v11.38h-5.85v-10.51c0-2.81-.91-4.43-2.85-4.43-1.38,0-2.37.95-2.77,2.09-.16.44-.24,1.07-.24,1.54v11.3h-5.85v-10.83c0-2.45-.87-4.11-2.77-4.11-1.54,0-2.45,1.19-2.81,2.17-.2.47-.24,1.03-.24,1.5v11.26h-5.85v-13.16Z"/><path class="cls-1" d="m67.1,125.16v-3.64l3.32-3c5.61-5.02,8.34-7.9,8.42-10.91,0-2.09-1.26-3.75-4.23-3.75-2.21,0-4.15,1.11-5.49,2.13l-1.7-4.31c1.94-1.46,4.94-2.65,8.42-2.65,5.81,0,9.01,3.4,9.01,8.06,0,4.31-3.12,7.75-6.84,11.07l-2.37,1.98v.08h9.68v4.94h-18.22Z"/></g></svg>